<svg width="44" height="44" viewBox="0 0 44 44" fill="none" xmlns="http://www.w3.org/2000/svg">
<rect x="0.5" y="0.5" width="43" height="43" rx="11.5" stroke="#E81134"/>
<path d="M12 19.75C11.59 19.75 11.25 19.41 11.25 19V16.5C11.25 13.6 13.61 11.25 16.5 11.25H19C19.41 11.25 19.75 11.59 19.75 12C19.75 12.41 19.41 12.75 19 12.75H16.5C14.43 12.75 12.75 14.43 12.75 16.5V19C12.75 19.41 12.41 19.75 12 19.75Z" fill="#E81134"/>
<path d="M32 19.75C31.59 19.75 31.25 19.41 31.25 19V16.5C31.25 14.43 29.57 12.75 27.5 12.75H25C24.59 12.75 24.25 12.41 24.25 12C24.25 11.59 24.59 11.25 25 11.25H27.5C30.39 11.25 32.75 13.6 32.75 16.5V19C32.75 19.41 32.41 19.75 32 19.75Z" fill="#E81134"/>
<path d="M27.5 32.75H26C25.59 32.75 25.25 32.41 25.25 32C25.25 31.59 25.59 31.25 26 31.25H27.5C29.57 31.25 31.25 29.57 31.25 27.5V26C31.25 25.59 31.59 25.25 32 25.25C32.41 25.25 32.75 25.59 32.75 26V27.5C32.75 30.4 30.39 32.75 27.5 32.75Z" fill="#E81134"/>
<path d="M19 32.75H16.5C13.61 32.75 11.25 30.4 11.25 27.5V25C11.25 24.59 11.59 24.25 12 24.25C12.41 24.25 12.75 24.59 12.75 25V27.5C12.75 29.57 14.43 31.25 16.5 31.25H19C19.41 31.25 19.75 31.59 19.75 32C19.75 32.41 19.41 32.75 19 32.75Z" fill="#E81134"/>
<path d="M19 15.25H17C15.86 15.25 15.25 15.85 15.25 17V19C15.25 20.15 15.86 20.75 17 20.75H19C20.14 20.75 20.75 20.15 20.75 19V17C20.75 15.85 20.14 15.25 19 15.25Z" fill="#E81134"/>
<path d="M27 15.25H25C23.86 15.25 23.25 15.85 23.25 17V19C23.25 20.15 23.86 20.75 25 20.75H27C28.14 20.75 28.75 20.15 28.75 19V17C28.75 15.85 28.14 15.25 27 15.25Z" fill="#E81134"/>
<path d="M19 23.25H17C15.86 23.25 15.25 23.85 15.25 25V27C15.25 28.15 15.86 28.75 17 28.75H19C20.14 28.75 20.75 28.15 20.75 27V25C20.75 23.85 20.14 23.25 19 23.25Z" fill="#E81134"/>
<path d="M27 23.25H25C23.86 23.25 23.25 23.85 23.25 25V27C23.25 28.15 23.86 28.75 25 28.75H27C28.14 28.75 28.75 28.15 28.75 27V25C28.75 23.85 28.14 23.25 27 23.25Z" fill="#E81134"/>
</svg>
