<svg width="64" height="64" viewBox="0 0 64 64" fill="none" xmlns="http://www.w3.org/2000/svg">
<path d="M45.3337 27.9997C45.3337 23.4026 43.5075 18.9938 40.2569 15.7432C37.0062 12.4925 32.5974 10.6664 28.0004 10.6664C23.4033 10.6664 18.9945 12.4925 15.7438 15.7432C12.4932 18.9938 10.667 23.4026 10.667 27.9997C10.667 32.5968 12.4932 37.0056 15.7438 40.2562C18.9945 43.5068 23.4033 45.333 28.0004 45.333C32.5974 45.333 37.0062 43.5068 40.2569 40.2562C43.5075 37.0056 45.3337 32.5968 45.3337 27.9997ZM32.715 19.5144C32.961 19.2597 33.2553 19.0565 33.5806 18.9167C33.906 18.777 34.2559 18.7034 34.61 18.7004C34.964 18.6973 35.3152 18.7647 35.6429 18.8988C35.9706 19.0329 36.2684 19.2309 36.5187 19.4813C36.7691 19.7317 36.9671 20.0294 37.1012 20.3571C37.2353 20.6849 37.3028 21.036 37.2997 21.3901C37.2966 21.7442 37.223 22.0941 37.0833 22.4194C36.9435 22.7448 36.7404 23.039 36.4857 23.285L31.771 27.9997L36.4857 32.7144L36.6697 32.917C37.0873 33.4289 37.3001 34.0776 37.2667 34.7375C37.2334 35.3973 36.9563 36.0213 36.4891 36.4884C36.0219 36.9556 35.398 37.2327 34.7381 37.2661C34.0783 37.2994 33.4296 37.0867 32.9177 36.669L32.715 36.4824L28.0004 31.7704L23.2857 36.485C23.0397 36.7397 22.7454 36.9429 22.4201 37.0826C22.0948 37.2224 21.7448 37.2959 21.3908 37.299C21.0367 37.3021 20.6855 37.2346 20.3578 37.1005C20.0301 36.9665 19.7323 36.7685 19.482 36.5181C19.2316 36.2677 19.0336 35.97 18.8995 35.6422C18.7654 35.3145 18.6979 34.9634 18.701 34.6093C18.7041 34.2552 18.7777 33.9053 18.9174 33.5799C19.0572 33.2546 19.2603 32.9603 19.515 32.7144L24.2297 27.9997L19.515 23.285L19.331 23.0824C18.9163 22.5701 18.706 21.9224 18.7406 21.2642C18.7753 20.606 19.0525 19.984 19.5187 19.5181C19.9849 19.0523 20.6071 18.7755 21.2653 18.7414C21.9235 18.7072 22.5711 18.9179 23.083 19.333L23.2857 19.5197L28.0004 24.2264L32.715 19.5144ZM50.667 27.9997C50.6731 33.0907 48.957 38.0342 45.7977 42.0264L55.5417 51.7704C56.0096 52.2768 56.2633 52.9447 56.2498 53.634C56.2363 54.3234 55.9566 54.9808 55.4692 55.4686C54.9818 55.9563 54.3246 56.2365 53.6352 56.2505C52.9459 56.2645 52.2778 56.0112 51.771 55.5437L42.027 45.797C38.0348 48.9563 33.0914 50.6724 28.0004 50.6664C23.5173 50.6664 19.1349 49.337 15.4074 46.8463C11.6799 44.3557 8.77467 40.8156 7.05909 36.6738C5.3435 32.5321 4.89462 27.9745 5.76922 23.5776C6.64382 19.1807 8.80261 15.1419 11.9726 11.9719C15.1426 8.80194 19.1814 6.64315 23.5783 5.76855C27.9752 4.89395 32.5327 5.34283 36.6745 7.05842C40.8163 8.774 44.3564 11.6792 46.847 15.4068C49.3376 19.1343 50.667 23.5166 50.667 27.9997Z" fill="#333333"/>
</svg>
