<svg width="64" height="64" viewBox="0 0 64 64" fill="none" xmlns="http://www.w3.org/2000/svg">
<path d="M45.333 27.9997C45.333 23.4026 43.5068 18.9938 40.2562 15.7432C37.0056 12.4925 32.5968 10.6664 27.9997 10.6664C23.4026 10.6664 18.9938 12.4925 15.7432 15.7432C12.4925 18.9938 10.6664 23.4026 10.6664 27.9997C10.6664 32.5968 12.4925 37.0056 15.7432 40.2562C18.9938 43.5068 23.4026 45.333 27.9997 45.333C32.5968 45.333 37.0056 43.5068 40.2562 40.2562C43.5068 37.0056 45.333 32.5968 45.333 27.9997ZM32.7143 19.5144C32.9603 19.2597 33.2546 19.0565 33.5799 18.9167C33.9053 18.777 34.2552 18.7034 34.6093 18.7004C34.9634 18.6973 35.3145 18.7647 35.6422 18.8988C35.97 19.0329 36.2677 19.2309 36.5181 19.4813C36.7684 19.7317 36.9665 20.0294 37.1005 20.3571C37.2346 20.6849 37.3021 21.036 37.299 21.3901C37.2959 21.7442 37.2224 22.0941 37.0826 22.4194C36.9429 22.7448 36.7397 23.039 36.485 23.285L31.7703 27.9997L36.485 32.7144L36.669 32.917C37.0867 33.4289 37.2994 34.0776 37.2661 34.7375C37.2327 35.3973 36.9556 36.0213 36.4884 36.4884C36.0213 36.9556 35.3973 37.2327 34.7375 37.2661C34.0776 37.2994 33.4289 37.0867 32.917 36.669L32.7143 36.4824L27.9997 31.7704L23.285 36.485C23.039 36.7397 22.7448 36.9429 22.4194 37.0826C22.0941 37.2224 21.7442 37.2959 21.3901 37.299C21.036 37.3021 20.6849 37.2346 20.3571 37.1005C20.0294 36.9665 19.7317 36.7685 19.4813 36.5181C19.2309 36.2677 19.0329 35.97 18.8988 35.6422C18.7647 35.3145 18.6973 34.9634 18.7003 34.6093C18.7034 34.2552 18.777 33.9053 18.9167 33.5799C19.0565 33.2546 19.2597 32.9603 19.5143 32.7144L24.229 27.9997L19.5143 23.285L19.3304 23.0824C18.9156 22.5701 18.7053 21.9224 18.74 21.2642C18.7746 20.606 19.0518 19.984 19.518 19.5181C19.9842 19.0523 20.6064 18.7755 21.2646 18.7414C21.9228 18.7072 22.5704 18.9179 23.0823 19.333L23.285 19.5197L27.9997 24.2264L32.7143 19.5144ZM50.6663 27.9997C50.6724 33.0907 48.9563 38.0342 45.797 42.0264L55.541 51.7704C56.0089 52.2768 56.2627 52.9447 56.2492 53.634C56.2356 54.3234 55.9559 54.9808 55.4685 55.4686C54.9811 55.9563 54.3239 56.2365 53.6345 56.2505C52.9452 56.2645 52.2771 56.0112 51.7703 55.5437L42.0263 45.797C38.0342 48.9563 33.0907 50.6724 27.9997 50.6664C23.5166 50.6664 19.1343 49.337 15.4068 46.8463C11.6792 44.3557 8.774 40.8156 7.05842 36.6738C5.34283 32.5321 4.89395 27.9745 5.76855 23.5776C6.64315 19.1807 8.80194 15.1419 11.9719 11.9719C15.1419 8.80194 19.1807 6.64315 23.5776 5.76855C27.9745 4.89395 32.532 5.34283 36.6738 7.05842C40.8156 8.774 44.3557 11.6792 46.8463 15.4068C49.337 19.1343 50.6663 23.5166 50.6663 27.9997Z" fill="#DADADA"/>
</svg>
