<svg width="64" height="64" viewBox="0 0 64 64" fill="none" xmlns="http://www.w3.org/2000/svg">
<path d="M7.26622 56C6.77733 56 6.33289 55.8782 5.93289 55.6347C5.53289 55.3911 5.22178 55.0684 4.99955 54.6667C4.77733 54.2649 4.65555 53.8311 4.63422 53.3653C4.61289 52.8996 4.73467 52.4444 4.99955 52L29.6662 9.33333C29.9329 8.88889 30.2778 8.55556 30.7009 8.33333C31.124 8.11111 31.5569 8 31.9996 8C32.4422 8 32.876 8.11111 33.3009 8.33333C33.7258 8.55556 34.0698 8.88889 34.3329 9.33333L58.9995 52C59.2662 52.4444 59.3889 52.9004 59.3675 53.368C59.3462 53.8356 59.2235 54.2684 58.9995 54.6667C58.7756 55.0649 58.4644 55.3876 58.0662 55.6347C57.668 55.8818 57.2235 56.0036 56.7329 56H7.26622ZM31.9996 48C32.7551 48 33.3889 47.744 33.9009 47.232C34.4129 46.72 34.668 46.0871 34.6662 45.3333C34.6644 44.5796 34.4084 43.9467 33.8982 43.4347C33.388 42.9227 32.7551 42.6667 31.9996 42.6667C31.244 42.6667 30.6111 42.9227 30.1009 43.4347C29.5907 43.9467 29.3347 44.5796 29.3329 45.3333C29.3311 46.0871 29.5871 46.7209 30.1009 47.2347C30.6147 47.7484 31.2476 48.0036 31.9996 48ZM31.9996 40C32.7551 40 33.3889 39.744 33.9009 39.232C34.4129 38.72 34.668 38.0871 34.6662 37.3333V29.3333C34.6662 28.5778 34.4102 27.9449 33.8982 27.4347C33.3862 26.9244 32.7533 26.6684 31.9996 26.6667C31.2458 26.6649 30.6129 26.9209 30.1009 27.4347C29.5889 27.9484 29.3329 28.5813 29.3329 29.3333V37.3333C29.3329 38.0889 29.5889 38.7227 30.1009 39.2347C30.6129 39.7467 31.2458 40.0018 31.9996 40Z" fill="#E8A811"/>
</svg>
